<mxfile host="65bd71144e">
    <diagram id="u-Y_QvvGVT6uXgCXGWrv" name="Page-1">
        <mxGraphModel dx="3787" dy="1889" grid="1" gridSize="10" guides="1" tooltips="1" connect="1" arrows="1" fold="1" page="1" pageScale="1" pageWidth="850" pageHeight="1100" math="0" shadow="0">
            <root>
                <mxCell id="0"/>
                <mxCell id="1" parent="0"/>
                <mxCell id="19" value="" style="group" parent="1" vertex="1" connectable="0">
                    <mxGeometry x="-1550" y="-180" width="520" height="310" as="geometry"/>
                </mxCell>
                <mxCell id="20" value="" style="rounded=0;whiteSpace=wrap;html=1;" parent="19" vertex="1">
                    <mxGeometry width="520" height="310" as="geometry"/>
                </mxCell>
                <mxCell id="158" value="Server" style="html=1;dropTarget=0;" parent="19" vertex="1">
                    <mxGeometry x="125.0632911392405" y="233.7704918032787" width="118.48101265822784" height="45.73770491803279" as="geometry"/>
                </mxCell>
                <mxCell id="159" value="" style="shape=module;jettyWidth=8;jettyHeight=4;" parent="158" vertex="1">
                    <mxGeometry x="1" width="20" height="20" relative="1" as="geometry">
                        <mxPoint x="-27" y="7" as="offset"/>
                    </mxGeometry>
                </mxCell>
                <mxCell id="22" value="" style="group" parent="19" vertex="1" connectable="0">
                    <mxGeometry x="258.02343580470165" y="100.91480093676816" width="148.57142857142858" height="132.85714285714286" as="geometry"/>
                </mxCell>
                <mxCell id="23" value="Database" style="shape=cylinder3;whiteSpace=wrap;html=1;boundedLbl=1;backgroundOutline=1;size=15;" parent="22" vertex="1">
                    <mxGeometry width="139.2857142857143" height="132.85714285714286" as="geometry"/>
                </mxCell>
                <mxCell id="24" value="[x]" style="text;html=1;strokeColor=none;fillColor=none;align=center;verticalAlign=middle;whiteSpace=wrap;rounded=0;" parent="22" vertex="1">
                    <mxGeometry x="74.28571428571429" y="22.142857142857142" width="74.28571428571429" height="26.57142857142857" as="geometry"/>
                </mxCell>
                <mxCell id="26" value="" style="group;imageHeight=24;rounded=0;glass=0;shadow=0;" parent="1" vertex="1" connectable="0">
                    <mxGeometry x="-830" y="190" width="1231.6" height="860" as="geometry"/>
                </mxCell>
                <mxCell id="27" value="" style="rounded=0;whiteSpace=wrap;html=1;imageHeight=24;glass=1;" parent="26" vertex="1">
                    <mxGeometry width="1079.9964103448276" height="860" as="geometry"/>
                </mxCell>
                <mxCell id="45" value="Component" style="html=1;dropTarget=0;" parent="26" vertex="1">
                    <mxGeometry x="124.95958466360152" y="430" width="126.07958094099617" height="66.26134615384615" as="geometry"/>
                </mxCell>
                <mxCell id="46" value="" style="shape=module;jettyWidth=8;jettyHeight=4;" parent="45" vertex="1">
                    <mxGeometry x="1" width="20" height="20" relative="1" as="geometry">
                        <mxPoint x="-27" y="7" as="offset"/>
                    </mxGeometry>
                </mxCell>
                <mxCell id="49" value="Action" style="rounded=0;whiteSpace=wrap;html=1;" parent="26" vertex="1">
                    <mxGeometry x="122.54868358596309" y="601.7153179487179" width="130.90865579937304" height="68.80000000000001" as="geometry"/>
                </mxCell>
                <mxCell id="50" value="Reducsers" style="html=1;dropTarget=0;" parent="26" vertex="1">
                    <mxGeometry x="477.06241435624526" y="430.1075" width="125.87158163233717" height="66.15384615384616" as="geometry"/>
                </mxCell>
                <mxCell id="51" value="" style="shape=module;jettyWidth=8;jettyHeight=4;" parent="50" vertex="1">
                    <mxGeometry x="1" width="20" height="20" relative="1" as="geometry">
                        <mxPoint x="-27" y="7" as="offset"/>
                    </mxGeometry>
                </mxCell>
                <mxCell id="52" value="Comparator" style="html=1;dropTarget=0;" parent="26" vertex="1">
                    <mxGeometry x="861.085137954636" y="267.09615384615387" width="149.15950422873559" height="78.3923076923077" as="geometry"/>
                </mxCell>
                <mxCell id="53" value="" style="shape=module;jettyWidth=8;jettyHeight=4;" parent="52" vertex="1">
                    <mxGeometry x="1" width="20" height="20" relative="1" as="geometry">
                        <mxPoint x="-27" y="7" as="offset"/>
                    </mxGeometry>
                </mxCell>
                <mxCell id="54" value="Effects" style="html=1;dropTarget=0;" parent="26" vertex="1">
                    <mxGeometry x="623.9979259770116" y="620.1923076923078" width="143.99952137931035" height="74.42307692307693" as="geometry"/>
                </mxCell>
                <mxCell id="55" value="" style="shape=module;jettyWidth=8;jettyHeight=4;" parent="54" vertex="1">
                    <mxGeometry x="1" width="20" height="20" relative="1" as="geometry">
                        <mxPoint x="-27" y="7" as="offset"/>
                    </mxGeometry>
                </mxCell>
                <mxCell id="56" value="Selector" style="rounded=0;whiteSpace=wrap;html=1;" parent="26" vertex="1">
                    <mxGeometry x="139.99953467432948" y="244.66173076923076" width="95.99968091954022" height="49.61538461538462" as="geometry"/>
                </mxCell>
                <mxCell id="57" value="" style="endArrow=classic;html=1;" parent="26" source="56" target="41" edge="1">
                    <mxGeometry width="50" height="50" relative="1" as="geometry">
                        <mxPoint x="303.99898957854407" y="322.5" as="sourcePoint"/>
                        <mxPoint x="343.99885662835254" y="281.1538461538462" as="targetPoint"/>
                    </mxGeometry>
                </mxCell>
                <mxCell id="58" value="" style="endArrow=classic;html=1;" parent="26" source="45" target="56" edge="1">
                    <mxGeometry width="50" height="50" relative="1" as="geometry">
                        <mxPoint x="247.99917570881226" y="396.92307692307696" as="sourcePoint"/>
                        <mxPoint x="287.9990427586207" y="355.5769230769232" as="targetPoint"/>
                    </mxGeometry>
                </mxCell>
                <mxCell id="61" value="select" style="edgeLabel;html=1;align=center;verticalAlign=middle;resizable=0;points=[];" parent="58" vertex="1" connectable="0">
                    <mxGeometry x="0.0111" y="1" relative="1" as="geometry">
                        <mxPoint as="offset"/>
                    </mxGeometry>
                </mxCell>
                <mxCell id="59" value="" style="endArrow=classic;html=1;" parent="26" source="45" target="49" edge="1">
                    <mxGeometry width="50" height="50" relative="1" as="geometry">
                        <mxPoint x="223.9992554789272" y="628.4615384615385" as="sourcePoint"/>
                        <mxPoint x="263.99912252873565" y="587.1153846153849" as="targetPoint"/>
                    </mxGeometry>
                </mxCell>
                <mxCell id="60" value="dispatch" style="edgeLabel;html=1;align=center;verticalAlign=middle;resizable=0;points=[];" parent="59" vertex="1" connectable="0">
                    <mxGeometry x="0.1435" y="5" relative="1" as="geometry">
                        <mxPoint as="offset"/>
                    </mxGeometry>
                </mxCell>
                <mxCell id="65" value="" style="endArrow=classic;html=1;" parent="26" source="49" target="50" edge="1">
                    <mxGeometry width="50" height="50" relative="1" as="geometry">
                        <mxPoint x="463.9984577777778" y="719.423076923077" as="sourcePoint"/>
                        <mxPoint x="503.99832482758626" y="678.0769230769233" as="targetPoint"/>
                        <Array as="points">
                            <mxPoint x="539.9982051724138" y="635.9038461538464"/>
                        </Array>
                    </mxGeometry>
                </mxCell>
                <mxCell id="68" value="" style="endArrow=classic;html=1;entryX=0.997;entryY=0.808;entryDx=0;entryDy=0;entryPerimeter=0;" parent="26" source="54" target="49" edge="1">
                    <mxGeometry width="50" height="50" relative="1" as="geometry">
                        <mxPoint x="519.9982716475096" y="785.5769230769233" as="sourcePoint"/>
                        <mxPoint x="559.9981386973179" y="744.2307692307694" as="targetPoint"/>
                    </mxGeometry>
                </mxCell>
                <mxCell id="69" value="subscribe" style="edgeLabel;html=1;align=center;verticalAlign=middle;resizable=0;points=[];" parent="68" vertex="1" connectable="0">
                    <mxGeometry x="0.1123" y="1" relative="1" as="geometry">
                        <mxPoint as="offset"/>
                    </mxGeometry>
                </mxCell>
                <mxCell id="70" value="" style="endArrow=classic;html=1;" parent="26" source="50" target="41" edge="1">
                    <mxGeometry width="50" height="50" relative="1" as="geometry">
                        <mxPoint x="471.9984311877395" y="421.7307692307692" as="sourcePoint"/>
                        <mxPoint x="511.99829823754783" y="380.3846153846154" as="targetPoint"/>
                    </mxGeometry>
                </mxCell>
                <mxCell id="71" value="update" style="edgeLabel;html=1;align=center;verticalAlign=middle;resizable=0;points=[];" parent="70" vertex="1" connectable="0">
                    <mxGeometry x="-0.0783" relative="1" as="geometry">
                        <mxPoint as="offset"/>
                    </mxGeometry>
                </mxCell>
                <mxCell id="40" value="" style="group" parent="26" vertex="1" connectable="0">
                    <mxGeometry x="503.72632573164753" y="227.93307692307692" width="72.55175885494252" height="83.07269230769231" as="geometry"/>
                </mxCell>
                <mxCell id="41" value="store" style="shape=cylinder3;whiteSpace=wrap;html=1;boundedLbl=1;backgroundOutline=1;size=15;" parent="40" vertex="1">
                    <mxGeometry width="68.01727392650862" height="83.07269230769231" as="geometry"/>
                </mxCell>
                <mxCell id="73" value="Checker" style="html=1;dropTarget=0;" parent="26" vertex="1">
                    <mxGeometry x="637.1498822629885" y="215" width="117.69560880735631" height="61.853846153846156" as="geometry"/>
                </mxCell>
                <mxCell id="74" value="" style="shape=module;jettyWidth=8;jettyHeight=4;" parent="73" vertex="1">
                    <mxGeometry x="1" width="20" height="20" relative="1" as="geometry">
                        <mxPoint x="-27" y="7" as="offset"/>
                    </mxGeometry>
                </mxCell>
                <mxCell id="14" value="" style="group" parent="26" vertex="1" connectable="0">
                    <mxGeometry x="861.085137954636" y="587.1153846153849" width="187.51937672950194" height="223.98038461538468" as="geometry"/>
                </mxCell>
                <mxCell id="3" value="IndexedDB" style="shape=cylinder3;whiteSpace=wrap;html=1;boundedLbl=1;backgroundOutline=1;size=15;" parent="14" vertex="1">
                    <mxGeometry width="175.79941568390808" height="223.98038461538468" as="geometry"/>
                </mxCell>
                <mxCell id="75" value="" style="endArrow=classic;html=1;" parent="26" source="54" target="73" edge="1">
                    <mxGeometry width="50" height="50" relative="1" as="geometry">
                        <mxPoint x="687.9977132567051" y="570.5769230769231" as="sourcePoint"/>
                        <mxPoint x="727.9975803065136" y="529.2307692307693" as="targetPoint"/>
                    </mxGeometry>
                </mxCell>
                <mxCell id="76" value="update" style="edgeLabel;html=1;align=center;verticalAlign=middle;resizable=0;points=[];" parent="75" vertex="1" connectable="0">
                    <mxGeometry x="-0.1184" y="-1" relative="1" as="geometry">
                        <mxPoint as="offset"/>
                    </mxGeometry>
                </mxCell>
                <mxCell id="77" value="StorageClient" style="html=1;dropTarget=0;" parent="26" vertex="1">
                    <mxGeometry x="880.2610742183142" y="417.86903846153854" width="149.15950422873559" height="78.3923076923077" as="geometry"/>
                </mxCell>
                <mxCell id="78" value="" style="shape=module;jettyWidth=8;jettyHeight=4;" parent="77" vertex="1">
                    <mxGeometry x="1" width="20" height="20" relative="1" as="geometry">
                        <mxPoint x="-27" y="7" as="offset"/>
                    </mxGeometry>
                </mxCell>
                <mxCell id="79" value="" style="endArrow=classic;html=1;entryX=0;entryY=0.5;entryDx=0;entryDy=0;" parent="26" source="54" target="77" edge="1">
                    <mxGeometry width="50" height="50" relative="1" as="geometry">
                        <mxPoint x="751.9975005363985" y="587.1153846153849" as="sourcePoint"/>
                        <mxPoint x="791.997367586207" y="545.7692307692308" as="targetPoint"/>
                    </mxGeometry>
                </mxCell>
                <mxCell id="80" value="action" style="edgeLabel;html=1;align=center;verticalAlign=middle;resizable=0;points=[];" parent="79" vertex="1" connectable="0">
                    <mxGeometry x="-0.1306" y="-1" relative="1" as="geometry">
                        <mxPoint x="1" as="offset"/>
                    </mxGeometry>
                </mxCell>
                <mxCell id="81" value="" style="endArrow=classic;html=1;" parent="26" source="77" target="3" edge="1">
                    <mxGeometry width="50" height="50" relative="1" as="geometry">
                        <mxPoint x="847.9971814559387" y="570.5769230769231" as="sourcePoint"/>
                        <mxPoint x="887.9970485057471" y="529.2307692307693" as="targetPoint"/>
                    </mxGeometry>
                </mxCell>
                <mxCell id="82" value="update" style="edgeLabel;html=1;align=center;verticalAlign=middle;resizable=0;points=[];" parent="81" vertex="1" connectable="0">
                    <mxGeometry x="-0.1815" y="-1" relative="1" as="geometry">
                        <mxPoint as="offset"/>
                    </mxGeometry>
                </mxCell>
                <mxCell id="160" value="&lt;font style=&quot;font-size: 30px;&quot;&gt;State Management Offline (PWA)&lt;/font&gt;" style="text;html=1;strokeColor=none;fillColor=none;align=center;verticalAlign=middle;whiteSpace=wrap;rounded=0;labelBorderColor=default;" parent="26" vertex="1">
                    <mxGeometry x="79.03" y="106.17" width="470.97" height="26.34" as="geometry"/>
                </mxCell>
                <mxCell id="121" value="" style="group;imageHeight=24;rounded=0;glass=0;shadow=0;" parent="1" vertex="1" connectable="0">
                    <mxGeometry x="-1980" y="180" width="1080" height="860" as="geometry"/>
                </mxCell>
                <mxCell id="122" value="" style="rounded=0;whiteSpace=wrap;html=1;imageHeight=24;glass=1;" parent="121" vertex="1">
                    <mxGeometry y="20" width="1080" height="840" as="geometry"/>
                </mxCell>
                <mxCell id="123" value="Component" style="html=1;dropTarget=0;" parent="121" vertex="1">
                    <mxGeometry x="124.96" y="430" width="126.08" height="66.26134615384615" as="geometry"/>
                </mxCell>
                <mxCell id="124" value="" style="shape=module;jettyWidth=8;jettyHeight=4;" parent="123" vertex="1">
                    <mxGeometry x="1" width="20" height="20" relative="1" as="geometry">
                        <mxPoint x="-27" y="7" as="offset"/>
                    </mxGeometry>
                </mxCell>
                <mxCell id="125" value="Action" style="rounded=0;whiteSpace=wrap;html=1;" parent="121" vertex="1">
                    <mxGeometry x="122.5490909090909" y="601.7153179487179" width="130.9090909090909" height="68.80000000000001" as="geometry"/>
                </mxCell>
                <mxCell id="126" value="Reducsers" style="html=1;dropTarget=0;" parent="121" vertex="1">
                    <mxGeometry x="477.064" y="430.1075" width="125.872" height="66.15384615384616" as="geometry"/>
                </mxCell>
                <mxCell id="127" value="" style="shape=module;jettyWidth=8;jettyHeight=4;" parent="126" vertex="1">
                    <mxGeometry x="1" width="20" height="20" relative="1" as="geometry">
                        <mxPoint x="-27" y="7" as="offset"/>
                    </mxGeometry>
                </mxCell>
                <mxCell id="128" value="Comparator" style="html=1;dropTarget=0;" parent="121" vertex="1">
                    <mxGeometry x="919.9979999999999" y="249.99615384615385" width="149.15999999999997" height="78.3923076923077" as="geometry"/>
                </mxCell>
                <mxCell id="129" value="" style="shape=module;jettyWidth=8;jettyHeight=4;" parent="128" vertex="1">
                    <mxGeometry x="1" width="20" height="20" relative="1" as="geometry">
                        <mxPoint x="-27" y="7" as="offset"/>
                    </mxGeometry>
                </mxCell>
                <mxCell id="130" value="Effects" style="html=1;dropTarget=0;" parent="121" vertex="1">
                    <mxGeometry x="624" y="620.1923076923077" width="144" height="74.42307692307693" as="geometry"/>
                </mxCell>
                <mxCell id="131" value="" style="shape=module;jettyWidth=8;jettyHeight=4;" parent="130" vertex="1">
                    <mxGeometry x="1" width="20" height="20" relative="1" as="geometry">
                        <mxPoint x="-27" y="7" as="offset"/>
                    </mxGeometry>
                </mxCell>
                <mxCell id="132" value="Selector" style="rounded=0;whiteSpace=wrap;html=1;" parent="121" vertex="1">
                    <mxGeometry x="140" y="244.66173076923076" width="96" height="49.61538461538462" as="geometry"/>
                </mxCell>
                <mxCell id="133" value="" style="endArrow=classic;html=1;" parent="121" source="132" target="145" edge="1">
                    <mxGeometry width="50" height="50" relative="1" as="geometry">
                        <mxPoint x="304" y="322.5" as="sourcePoint"/>
                        <mxPoint x="344" y="281.1538461538462" as="targetPoint"/>
                    </mxGeometry>
                </mxCell>
                <mxCell id="134" value="" style="endArrow=classic;html=1;" parent="121" source="123" target="132" edge="1">
                    <mxGeometry width="50" height="50" relative="1" as="geometry">
                        <mxPoint x="248" y="396.92307692307696" as="sourcePoint"/>
                        <mxPoint x="288" y="355.57692307692315" as="targetPoint"/>
                    </mxGeometry>
                </mxCell>
                <mxCell id="135" value="select" style="edgeLabel;html=1;align=center;verticalAlign=middle;resizable=0;points=[];" parent="134" vertex="1" connectable="0">
                    <mxGeometry x="0.0111" y="1" relative="1" as="geometry">
                        <mxPoint as="offset"/>
                    </mxGeometry>
                </mxCell>
                <mxCell id="136" value="" style="endArrow=classic;html=1;" parent="121" source="123" target="125" edge="1">
                    <mxGeometry width="50" height="50" relative="1" as="geometry">
                        <mxPoint x="224" y="628.4615384615385" as="sourcePoint"/>
                        <mxPoint x="264" y="587.1153846153848" as="targetPoint"/>
                    </mxGeometry>
                </mxCell>
                <mxCell id="137" value="dispatch" style="edgeLabel;html=1;align=center;verticalAlign=middle;resizable=0;points=[];" parent="136" vertex="1" connectable="0">
                    <mxGeometry x="0.1435" y="5" relative="1" as="geometry">
                        <mxPoint as="offset"/>
                    </mxGeometry>
                </mxCell>
                <mxCell id="138" value="" style="endArrow=classic;html=1;" parent="121" source="125" target="126" edge="1">
                    <mxGeometry width="50" height="50" relative="1" as="geometry">
                        <mxPoint x="464" y="719.423076923077" as="sourcePoint"/>
                        <mxPoint x="504" y="678.0769230769232" as="targetPoint"/>
                        <Array as="points">
                            <mxPoint x="540" y="635.9038461538463"/>
                        </Array>
                    </mxGeometry>
                </mxCell>
                <mxCell id="139" value="" style="endArrow=classic;html=1;entryX=0.997;entryY=0.808;entryDx=0;entryDy=0;entryPerimeter=0;" parent="121" source="130" target="125" edge="1">
                    <mxGeometry width="50" height="50" relative="1" as="geometry">
                        <mxPoint x="520" y="785.5769230769232" as="sourcePoint"/>
                        <mxPoint x="560" y="744.2307692307693" as="targetPoint"/>
                    </mxGeometry>
                </mxCell>
                <mxCell id="140" value="subscribe" style="edgeLabel;html=1;align=center;verticalAlign=middle;resizable=0;points=[];" parent="139" vertex="1" connectable="0">
                    <mxGeometry x="0.1123" y="1" relative="1" as="geometry">
                        <mxPoint as="offset"/>
                    </mxGeometry>
                </mxCell>
                <mxCell id="141" value="" style="endArrow=classic;html=1;" parent="121" source="126" target="145" edge="1">
                    <mxGeometry width="50" height="50" relative="1" as="geometry">
                        <mxPoint x="472" y="421.7307692307692" as="sourcePoint"/>
                        <mxPoint x="511.99999999999994" y="380.3846153846154" as="targetPoint"/>
                    </mxGeometry>
                </mxCell>
                <mxCell id="142" value="update" style="edgeLabel;html=1;align=center;verticalAlign=middle;resizable=0;points=[];" parent="141" vertex="1" connectable="0">
                    <mxGeometry x="-0.0783" relative="1" as="geometry">
                        <mxPoint as="offset"/>
                    </mxGeometry>
                </mxCell>
                <mxCell id="143" value="&lt;font style=&quot;font-size: 30px;&quot;&gt;State Management Online&lt;/font&gt;" style="text;html=1;strokeColor=none;fillColor=none;align=center;verticalAlign=middle;whiteSpace=wrap;rounded=0;labelBackgroundColor=none;labelBorderColor=default;" parent="121" vertex="1">
                    <mxGeometry x="77.06" y="110" width="400" height="24.81" as="geometry"/>
                </mxCell>
                <mxCell id="144" value="" style="group" parent="121" vertex="1" connectable="0">
                    <mxGeometry x="503.728" y="227.93307692307692" width="72.55199999999999" height="83.07269230769231" as="geometry"/>
                </mxCell>
                <mxCell id="145" value="store" style="shape=cylinder3;whiteSpace=wrap;html=1;boundedLbl=1;backgroundOutline=1;size=15;" parent="144" vertex="1">
                    <mxGeometry width="68.0175" height="83.07269230769231" as="geometry"/>
                </mxCell>
                <mxCell id="146" value="Checker" style="html=1;dropTarget=0;" parent="121" vertex="1">
                    <mxGeometry x="661.0020000000001" y="320" width="117.69599999999998" height="61.853846153846156" as="geometry"/>
                </mxCell>
                <mxCell id="147" value="" style="shape=module;jettyWidth=8;jettyHeight=4;" parent="146" vertex="1">
                    <mxGeometry x="1" width="20" height="20" relative="1" as="geometry">
                        <mxPoint x="-27" y="7" as="offset"/>
                    </mxGeometry>
                </mxCell>
                <mxCell id="150" value="" style="endArrow=classic;html=1;exitX=0.696;exitY=-0.016;exitDx=0;exitDy=0;exitPerimeter=0;" parent="121" source="130" target="146" edge="1">
                    <mxGeometry width="50" height="50" relative="1" as="geometry">
                        <mxPoint x="688" y="570.5769230769231" as="sourcePoint"/>
                        <mxPoint x="728" y="529.2307692307693" as="targetPoint"/>
                    </mxGeometry>
                </mxCell>
                <mxCell id="151" value="update" style="edgeLabel;html=1;align=center;verticalAlign=middle;resizable=0;points=[];" parent="150" vertex="1" connectable="0">
                    <mxGeometry x="-0.1184" y="-1" relative="1" as="geometry">
                        <mxPoint as="offset"/>
                    </mxGeometry>
                </mxCell>
                <mxCell id="152" value="StorageClient" style="html=1;dropTarget=0;" parent="121" vertex="1">
                    <mxGeometry x="880.2639999999999" y="417.8690384615385" width="149.15999999999997" height="78.3923076923077" as="geometry"/>
                </mxCell>
                <mxCell id="153" value="" style="shape=module;jettyWidth=8;jettyHeight=4;" parent="152" vertex="1">
                    <mxGeometry x="1" width="20" height="20" relative="1" as="geometry">
                        <mxPoint x="-27" y="7" as="offset"/>
                    </mxGeometry>
                </mxCell>
                <mxCell id="154" value="" style="endArrow=classic;html=1;entryX=0;entryY=0.5;entryDx=0;entryDy=0;" parent="121" source="130" target="152" edge="1">
                    <mxGeometry width="50" height="50" relative="1" as="geometry">
                        <mxPoint x="752" y="587.1153846153848" as="sourcePoint"/>
                        <mxPoint x="792" y="545.7692307692308" as="targetPoint"/>
                    </mxGeometry>
                </mxCell>
                <mxCell id="155" value="action" style="edgeLabel;html=1;align=center;verticalAlign=middle;resizable=0;points=[];" parent="154" vertex="1" connectable="0">
                    <mxGeometry x="-0.1306" y="-1" relative="1" as="geometry">
                        <mxPoint x="1" as="offset"/>
                    </mxGeometry>
                </mxCell>
                <mxCell id="156" value="" style="endArrow=classic;html=1;" parent="121" source="152" target="149" edge="1">
                    <mxGeometry width="50" height="50" relative="1" as="geometry">
                        <mxPoint x="848" y="570.5769230769231" as="sourcePoint"/>
                        <mxPoint x="888" y="529.2307692307693" as="targetPoint"/>
                    </mxGeometry>
                </mxCell>
                <mxCell id="157" value="update" style="edgeLabel;html=1;align=center;verticalAlign=middle;resizable=0;points=[];" parent="156" vertex="1" connectable="0">
                    <mxGeometry x="-0.1815" y="-1" relative="1" as="geometry">
                        <mxPoint as="offset"/>
                    </mxGeometry>
                </mxCell>
                <mxCell id="148" value="" style="group" parent="121" vertex="1" connectable="0">
                    <mxGeometry x="864.9979999999999" y="587.1153846153848" width="187.52" height="223.98038461538465" as="geometry"/>
                </mxCell>
                <mxCell id="149" value="IndexedDB" style="shape=cylinder3;whiteSpace=wrap;html=1;boundedLbl=1;backgroundOutline=1;size=15;" parent="148" vertex="1">
                    <mxGeometry width="175.8" height="223.98038461538465" as="geometry"/>
                </mxCell>
                <mxCell id="164" value="" style="endArrow=classic;html=1;fontSize=11;entryX=0;entryY=0.75;entryDx=0;entryDy=0;" parent="121" source="166" target="128" edge="1">
                    <mxGeometry width="50" height="50" relative="1" as="geometry">
                        <mxPoint x="765" y="500" as="sourcePoint"/>
                        <mxPoint x="815" y="450" as="targetPoint"/>
                    </mxGeometry>
                </mxCell>
                <mxCell id="165" value="compare" style="edgeLabel;html=1;align=center;verticalAlign=middle;resizable=0;points=[];fontSize=11;" parent="164" vertex="1" connectable="0">
                    <mxGeometry x="0.0822" y="1" relative="1" as="geometry">
                        <mxPoint as="offset"/>
                    </mxGeometry>
                </mxCell>
                <mxCell id="166" value="OfflineManager" style="html=1;dropTarget=0;" parent="121" vertex="1">
                    <mxGeometry x="805" y="140" width="140" height="70" as="geometry"/>
                </mxCell>
                <mxCell id="167" value="" style="shape=module;jettyWidth=8;jettyHeight=4;" parent="166" vertex="1">
                    <mxGeometry x="1" width="20" height="20" relative="1" as="geometry">
                        <mxPoint x="-27" y="7" as="offset"/>
                    </mxGeometry>
                </mxCell>
                <mxCell id="168" value="" style="endArrow=classic;html=1;fontSize=11;entryX=0.098;entryY=0.023;entryDx=0;entryDy=0;entryPerimeter=0;" parent="121" source="166" target="152" edge="1">
                    <mxGeometry width="50" height="50" relative="1" as="geometry">
                        <mxPoint x="840" y="420" as="sourcePoint"/>
                        <mxPoint x="890" y="370" as="targetPoint"/>
                    </mxGeometry>
                </mxCell>
                <mxCell id="169" value="fetch" style="edgeLabel;html=1;align=center;verticalAlign=middle;resizable=0;points=[];fontSize=11;" parent="168" vertex="1" connectable="0">
                    <mxGeometry x="0.3754" y="2" relative="1" as="geometry">
                        <mxPoint as="offset"/>
                    </mxGeometry>
                </mxCell>
                <mxCell id="161" value="" style="endArrow=classic;html=1;fontSize=30;exitX=0.106;exitY=0.001;exitDx=0;exitDy=0;exitPerimeter=0;" parent="1" source="130" target="158" edge="1">
                    <mxGeometry width="50" height="50" relative="1" as="geometry">
                        <mxPoint x="-1330" y="430" as="sourcePoint"/>
                        <mxPoint x="-1280" y="380" as="targetPoint"/>
                        <Array as="points">
                            <mxPoint x="-1360" y="400"/>
                        </Array>
                    </mxGeometry>
                </mxCell>
                <mxCell id="163" value="&lt;font style=&quot;font-size: 11px;&quot;&gt;fetch&lt;/font&gt;" style="edgeLabel;html=1;align=center;verticalAlign=middle;resizable=0;points=[];fontSize=30;" parent="161" vertex="1" connectable="0">
                    <mxGeometry x="-0.0728" y="-3" relative="1" as="geometry">
                        <mxPoint as="offset"/>
                    </mxGeometry>
                </mxCell>
                <mxCell id="170" value="" style="group" vertex="1" connectable="0" parent="1">
                    <mxGeometry x="-480" y="-220" width="520" height="310" as="geometry"/>
                </mxCell>
                <mxCell id="171" value="" style="rounded=0;whiteSpace=wrap;html=1;" vertex="1" parent="170">
                    <mxGeometry width="520" height="310" as="geometry"/>
                </mxCell>
                <mxCell id="172" value="Server" style="html=1;dropTarget=0;" vertex="1" parent="170">
                    <mxGeometry x="125.0632911392405" y="233.7704918032787" width="118.48101265822784" height="45.73770491803279" as="geometry"/>
                </mxCell>
                <mxCell id="173" value="" style="shape=module;jettyWidth=8;jettyHeight=4;" vertex="1" parent="172">
                    <mxGeometry x="1" width="20" height="20" relative="1" as="geometry">
                        <mxPoint x="-27" y="7" as="offset"/>
                    </mxGeometry>
                </mxCell>
                <mxCell id="174" value="" style="group" vertex="1" connectable="0" parent="170">
                    <mxGeometry x="258.02343580470165" y="100.91480093676816" width="148.57142857142858" height="132.85714285714286" as="geometry"/>
                </mxCell>
                <mxCell id="175" value="Database" style="shape=cylinder3;whiteSpace=wrap;html=1;boundedLbl=1;backgroundOutline=1;size=15;" vertex="1" parent="174">
                    <mxGeometry width="139.2857142857143" height="132.85714285714286" as="geometry"/>
                </mxCell>
                <mxCell id="176" value="[x]" style="text;html=1;strokeColor=none;fillColor=none;align=center;verticalAlign=middle;whiteSpace=wrap;rounded=0;" vertex="1" parent="174">
                    <mxGeometry x="74.28571428571429" y="22.142857142857142" width="74.28571428571429" height="26.57142857142857" as="geometry"/>
                </mxCell>
                <mxCell id="178" style="edgeStyle=none;html=1;" edge="1" parent="1" source="177" target="77">
                    <mxGeometry relative="1" as="geometry"/>
                </mxCell>
                <mxCell id="177" value="StorageClient ist ein Spiegel der Controller im Server. Es" style="shape=note;whiteSpace=wrap;html=1;backgroundOutline=1;darkOpacity=0.05;" vertex="1" parent="1">
                    <mxGeometry x="425" y="510" width="245" height="220" as="geometry"/>
                </mxCell>
                <mxCell id="180" style="edgeStyle=none;html=1;" edge="1" parent="1" source="179" target="3">
                    <mxGeometry relative="1" as="geometry"/>
                </mxCell>
                <mxCell id="179" value="IndexedDB" style="shape=note;whiteSpace=wrap;html=1;backgroundOutline=1;darkOpacity=0.05;" vertex="1" parent="1">
                    <mxGeometry x="450" y="810" width="245" height="220" as="geometry"/>
                </mxCell>
            </root>
        </mxGraphModel>
    </diagram>
</mxfile>
